<?xml version="1.0" encoding="UTF-8"?>
<svg id="Capa_2" xmlns="http://www.w3.org/2000/svg" viewBox="0 0 355.37 54.42">
  <defs>
    <style>
      .cls-1 {
        fill: #2cd4c3;
      }

      .cls-2 {
        fill: #dd7975;
      }

      .cls-3 {
        fill: #fff;
      }
    </style>
  </defs>
  <g id="Capa_1-2" data-name="Capa_1">
    <g>
      <rect class="cls-1" x="150.47" y="13.59" width="85.08" height="40.84" rx="20.42" ry="20.42"/>
      <g>
        <polygon class="cls-2" points="255.63 17.27 249.69 17.27 249.69 25.15 240.96 25.15 240.96 29.99 249.69 29.99 249.69 52.68 255.63 52.68 255.63 29.99 265.9 29.99 265.9 25.15 255.63 25.15 255.63 17.27"/>
        <rect class="cls-2" x="278.92" y="14.72" width="6.48" height="6.09"/>
        <polygon class="cls-2" points="285.2 25.15 282.21 25.15 279.26 25.15 273.08 25.15 273.08 29.99 279.26 29.99 279.26 47.84 269.54 47.84 269.54 52.68 279.26 52.68 285.2 52.68 294.52 52.68 294.52 47.84 285.2 47.84 285.2 25.15"/>
        <path class="cls-2" d="M304.82,26.84c-2.18,1.13-3.86,2.72-5.06,4.76-1.2,2.04-1.8,4.46-1.8,7.26s.6,5.23,1.8,7.31c1.2,2.08,2.88,3.68,5.06,4.81,2.18,1.13,4.7,1.7,7.56,1.7h10.62v-4.84h-10.62c-2.56,0-4.61-.81-6.13-2.42-1.53-1.61-2.29-3.78-2.29-6.51s.76-4.94,2.29-6.53c1.53-1.6,3.57-2.39,6.13-2.39h10.62v-4.84h-10.62c-2.86,0-5.38.57-7.56,1.7Z"/>
        <path class="cls-2" d="M354.39,28.66c-.65-1.15-1.55-2.02-2.72-2.62-1.16-.6-2.53-.9-4.09-.9h-15.91v4.79h14.56c1.13,0,1.96.32,2.49.97.53.65.8,1.47.8,2.47v2.44h-10.42c-2.53,0-4.56.73-6.11,2.19-1.55,1.46-2.32,3.41-2.32,5.84v.9c0,2.36.77,4.27,2.32,5.73,1.55,1.46,3.58,2.19,6.11,2.19h16.26v-19.7c0-1.73-.32-3.17-.97-4.31ZM349.53,48.14h-9.23c-1.13,0-2.04-.31-2.74-.95-.7-.63-1.05-1.5-1.05-2.59v-.6c0-1.13.34-2.02,1.02-2.67.68-.65,1.6-.97,2.77-.97h9.23v7.78Z"/>
      </g>
      <g>
        <rect class="cls-2" x="31.31" y="15.2" width="6.41" height="6.02"/>
        <rect class="cls-2" x="31.66" y="25.51" width="5.87" height="27.23"/>
        <path class="cls-2" d="M119.79,26.67c-1.41-.77-3.04-1.16-4.88-1.16h-9.52v-9.13h-5.82v31.88h-9.31v-20.46c0-1.38-.34-2.56-1.02-3.51-.7-.99-2.04-1.49-3.98-1.49-1.61,0-3.29.48-5.01,1.42-1.7.93-3.36,2.25-4.94,3.93-1.32,1.4-2.52,3.02-3.6,4.83v-5.18c0-1.38-.34-2.56-1.02-3.51-.7-.99-2.04-1.49-3.98-1.49-1.61,0-3.29.48-5.01,1.42-1.7.93-3.36,2.25-4.94,3.93-1.32,1.4-2.52,3.02-3.6,4.83v-6.06c0-.36-.14-.69-.41-.96-.27-.27-.59-.41-.96-.41h-2.6c-.36,0-.69.14-.96.41-.27.27-.41.59-.41.96v15.31c-.34.79-.61,1.63-.8,2.49-.19.88-.29,1.82-.29,2.77,0,3.35,1.43,5.25,4.23,5.25h2.18v-3.8c0-3.58.49-6.74,1.46-9.4.97-2.65,2.21-4.89,3.69-6.66,1.48-1.76,3-3.1,4.51-3.98,1.36-.78,2.55-1.22,3.57-1.3v14.62c-.34.79-.61,1.63-.8,2.49-.19.88-.29,1.82-.29,2.77,0,1.7.38,2.98,1.12,3.8.75.83,1.88,1.45,3.39,1.45h1.9v-3.8c0-3.58.49-6.75,1.46-9.4.97-2.65,2.21-4.89,3.69-6.66,1.48-1.76,2.99-3.1,4.51-3.98,1.36-.78,2.55-1.22,3.57-1.3v21.49c0,1.4.38,2.34,1.14,2.8.7.43,1.48.85,2.3.85h11.19l15.34.05c1.87,0,3.51-.39,4.91-1.16,1.4-.77,2.48-1.85,3.26-3.23.77-1.38,1.16-2.98,1.16-4.79v-8.98c0-1.81-.39-3.4-1.16-4.76-.77-1.36-1.87-2.43-3.28-3.21ZM118.46,43.47c0,1.32-.41,2.4-1.23,3.26-.82.86-1.89,1.28-3.21,1.28h-8.63v-17.71h8.63c1.32,0,2.38.42,3.21,1.26.82.84,1.23,1.92,1.23,3.23v8.68Z"/>
        <polygon class="cls-2" points="147.07 48.01 137.75 48.01 137.75 25.56 131.88 25.56 131.88 52.79 147.07 52.79 147.07 48.01"/>
        <rect class="cls-2" x="131.53" y="15.25" width="6.41" height="6.02"/>
        <path class="cls-2" d="M19.27,37.55c-1.27-.69-2.75-1.04-4.46-1.04h-6.02c-1.12,0-2.01-.29-2.66-.86-.66-.58-.99-1.31-.99-2.2,0-.99.33-1.76.99-2.32.66-.56,1.51-.84,2.57-.84h13.22v-4.79h-13.52c-1.64,0-3.1.32-4.37.96-1.27.64-2.25,1.55-2.96,2.74-.71,1.18-1.06,2.6-1.06,4.24,0,1.55.35,2.9,1.06,4.07.71,1.17,1.7,2.08,2.98,2.74,1.28.66,2.76.99,4.44.99h6.02c1.12,0,2.01.32,2.66.96.66.64.99,1.44.99,2.39,0,1.02-.33,1.83-.99,2.44-.66.61-1.51.91-2.57.91H.74v4.79h14.16c1.68,0,3.15-.34,4.42-1.01,1.27-.67,2.24-1.62,2.94-2.84.69-1.22,1.04-2.65,1.04-4.29s-.35-3.02-1.06-4.22c-.71-1.2-1.69-2.15-2.96-2.84Z"/>
      </g>
      <circle class="cls-3" cx="172.59" cy="34" r="11.91"/>
      <rect class="cls-2" x="164.08" width="16.93" height="5.02"/>
    </g>
  </g>
</svg>